PathFileType	4	(X/Y/Z)	D:\TRACE\v60_Jaco2_6-2-23\BothDRS_Motion1_8-platform.trc
DataRate	CameraRate	NumFrames	NumMarkers	Units	OrigDataRate	OrigDataStartFrame	OrigNumFrames
100.00	100.00	      36	5	mm	100.00	1876	      7500
Frame#	Time	Left_Front			Right_Front			Left_Aft			Right_Aft			Post			
		X1	Y1	Z1	X2	Y2	Z2	X3	Y3	Z3	X4	Y4	Z4	X5	Y5	Z5	

1876	18.750	-750.30731	-12.71636	-644.12408	819.58704	-10.57773	-649.27960	-659.21222	22.81866	490.26245	782.92957	22.03268	500.42062	35.17573	1276.05493	-1008.16919	
1877	18.760	-750.21924	-12.62785	-644.03998	819.62921	-10.44029	-649.25122	-658.81995	21.97210	490.61847	783.07422	22.05417	500.52658	34.98852	1276.29407	-1007.61633	
1878	18.770	-750.30060	-12.40079	-643.96222	819.64850	-10.31343	-649.12732	-658.68530	21.87467	490.72961	783.55841	22.12190	500.56802	34.94631	1276.52246	-1007.08588	
1879	18.780	-750.29486	-12.31215	-643.93762	819.56012	-10.05691	-649.05811	-658.51642	21.49054	490.99445	783.62512	22.03159	500.63058	35.26412	1277.07654	-1006.70142	
1880	18.790	-750.27356	-12.07521	-643.79700	819.61926	-9.70857	-649.03735	-658.55621	21.40575	490.92383	783.76166	21.93755	500.65958	35.46409	1277.50464	-1006.25983	
1881	18.800	-750.42084	-11.71913	-643.70581	819.57275	-9.56850	-649.06262	-658.58624	21.24793	490.87833	783.80206	21.76010	500.66223	35.64740	1277.73254	-1006.06677	
1882	18.810	-750.41681	-11.62459	-643.71228	819.50916	-9.39009	-649.09271	-659.11768	21.73689	490.57928	783.73230	21.47351	500.73517	35.60538	1278.03223	-1005.59564	
1883	18.820	-750.44702	-11.41585	-643.63605	819.44757	-9.23607	-649.08783	-658.95789	21.10447	490.90479	783.66034	21.11751	500.85989	35.02523	1278.40674	-1004.98077	
1884	18.830	-750.39020	-10.99060	-643.61829	819.45715	-8.98355	-649.00043	-658.84381	20.72528	491.01770	783.81964	20.80037	500.93005	35.19599	1278.84302	-1004.60736	
1885	18.840	-750.32117	-10.51675	-643.55298	819.60681	-8.53226	-648.70660	-658.80530	20.63567	491.10870	783.62598	20.63601	501.02081	35.27383	1279.52637	-1003.78101	
1886	18.850	-750.49341	-10.10668	-643.40570	819.61560	-8.08317	-648.57104	-658.80292	20.48849	491.16849	783.55505	20.36912	501.06271	35.21775	1279.86853	-1003.24951	
1887	18.860	-750.73431	-9.80054	-643.36969	819.30933	-7.70043	-648.52472	-658.89124	20.30637	491.28616	783.35907	20.33827	500.72522	34.86982	1280.18311	-1002.47040	
1888	18.870	-751.18707	-9.48991	-643.33069	818.93707	-7.50894	-648.46088	-659.28571	20.03037	491.34189	783.01947	20.19153	500.90823	34.64135	1280.76563	-1001.80542	
1889	18.880	-751.46759	-9.17159	-643.46057	818.91998	-7.37345	-648.19183	-659.61127	19.83459	491.43408	782.49396	19.75629	501.12936	34.12780	1281.49475	-1000.62103	
1890	18.890	-751.63049	-8.85135	-643.37567	818.43738	-7.07891	-648.36328	-659.88531	19.60183	491.45142	782.28204	19.57677	501.20392	33.97305	1281.91638	-1000.15826	
1891	18.900	-751.84845	-8.65230	-643.21246	818.08557	-6.67855	-648.38513	-660.20941	19.47357	491.54672	782.22095	19.49666	501.22147	33.87363	1282.24146	-999.25000	
1892	18.910	-752.15186	-8.37422	-643.20575	817.91046	-6.25305	-648.30548	-660.34369	19.23152	491.63794	782.24225	19.41274	501.25256	33.81475	1282.51721	-998.17871	
1893	18.920	-752.37994	-8.25395	-643.16809	817.80890	-6.01166	-648.29651	-660.48071	18.96804	491.76071	782.01166	19.28803	501.30832	33.75660	1282.83496	-997.75116	
1894	18.930	-752.66864	-8.03898	-643.16455	817.49188	-5.92966	-648.38849	-660.64795	18.68448	491.88043	781.57550	18.99771	501.30841	32.96109	1283.33423	-997.27570	
1895	18.940	-752.85059	-7.90492	-643.16766	817.11145	-5.68752	-648.36957	-660.95831	18.35661	491.88934	781.14923	18.76016	501.43201	32.46416	1283.74084	-996.96246	
1896	18.950	-753.26892	-7.57161	-642.97394	816.84393	-5.50048	-648.22913	-661.20422	18.11774	492.02756	780.31409	18.46965	501.54282	32.39410	1284.34900	-996.72461	
1897	18.960	-753.72003	-7.17393	-642.65259	816.50861	-4.97511	-647.96899	-661.51343	17.98362	492.12323	780.22620	18.35074	501.53229	32.29710	1284.65430	-996.62152	
1898	18.970	-754.13977	-6.89347	-642.51892	816.15973	-4.69582	-647.79315	-662.00873	17.83194	492.20981	780.08386	18.21653	501.59970	31.88182	1285.25671	-996.41406	
1899	18.980	-754.50482	-6.58942	-642.51489	815.78265	-4.38251	-647.73975	-662.56543	17.61165	492.24695	779.56677	17.89271	501.68018	31.46541	1285.67175	-996.03461	
1900	18.990	-754.93079	-5.98519	-642.69916	815.18512	-4.01681	-647.73865	-662.85254	17.34455	492.29880	779.38904	17.76293	501.81442	30.98613	1286.03247	-995.41260	
1901	19.000	-755.19250	-5.45709	-642.72546	814.66351	-3.82514	-647.81946	-663.24341	17.16870	492.37653	778.83221	17.45655	501.81073	31.11428	1286.54102	-994.69952	
1902	19.010	-755.55341	-5.29744	-642.58307	814.29614	-3.66820	-647.67780	-663.68732	17.01765	492.45154	778.15924	17.28543	501.88071	30.03864	1287.09106	-993.81476	
1903	19.020	-755.94653	-5.13034	-642.55353	813.96295	-3.61435	-647.55627	-664.13745	16.74423	492.59689	777.89825	17.14655	501.97842	29.59116	1287.54248	-993.01239	
1904	19.030	-756.61322	-4.92366	-642.32587	813.68359	-3.08998	-647.51447	-664.52661	16.52113	492.62311	777.59589	16.90566	502.14697	29.24941	1288.01233	-991.56610	
1905	19.040	-757.14838	-4.44068	-642.15424	813.19714	-2.45468	-647.48279	-665.12854	16.31055	492.70270	777.17242	16.44877	502.21173	28.78433	1288.45483	-990.39435	
1906	19.050	-757.39227	-3.99059	-642.03113	812.66876	-2.34343	-647.45874	-665.67090	15.98567	492.70740	776.55151	16.17954	502.31155	28.36347	1289.15857	-989.16754	
1907	19.060	-757.87238	-3.64475	-642.10571	811.96173	-1.96289	-647.35803	-665.89880	15.84383	492.81952	776.09039	16.15456	502.43909	27.68238	1289.73145	-988.07935	
1908	19.070	-758.53210	-3.46291	-641.99890	811.75372	-1.75297	-646.98462	-666.03430	15.25576	493.04074	775.43231	16.00304	502.64813	26.89610	1290.33179	-987.38525	
1909	19.080	-758.89905	-3.32802	-641.85236	810.97101	-1.46060	-647.02185	-666.69049	14.82125	493.19327	774.98370	15.79238	502.63962	26.62186	1290.88403	-986.30066	
1910	19.090	-759.40802	-2.99629	-641.88214	810.58020	-1.31595	-647.03650	-666.95898	14.28968	493.14963	774.38165	15.41125	502.70850	26.53074	1291.15698	-986.03387	
1911	19.100	-760.13409	-2.68055	-641.72839	810.09100	-0.87154	-647.04486	-668.19031	14.91356	493.13651	774.12671	15.14659	502.71448	26.29746	1291.38855	-985.78833	
